<?xml version="1.0" encoding="utf-8"?>
<!-- Generator: Adobe Illustrator 19.2.1, SVG Export Plug-In . SVG Version: 6.00 Build 0)  -->
<svg version="1.1" id="Layer_1" xmlns="http://www.w3.org/2000/svg" xmlns:xlink="http://www.w3.org/1999/xlink" x="0px" y="0px"
	 viewBox="0 0 50 50" style="enable-background:new 0 0 50 50;" xml:space="preserve">
<style type="text/css">
	.st0{fill:#FFFFFF;}
</style>
<path class="st0" d="M28.6,49.3c-2.2,0-4.4,0-6.6,0c-0.3-0.2-0.7-0.4-1-0.5c-8.1-1.7-13.9-6.2-17.4-13.7c-1-2.2-1.6-4.7-2.3-7.1
	c0-2,0-4.1,0-6.1c0.2-0.6,0.3-1.2,0.5-1.8C3.9,11,9.4,4.9,18.3,1.8c1.2-0.4,2.5-0.7,3.8-1.1c2.4,0,4.7,0,7.1,0
	c0.4,0.2,0.8,0.4,1.2,0.5c9.1,2.1,15.2,7.5,18.3,16.3c0.5,1.3,0.8,2.6,1.2,4c0,2.4,0,4.7,0,7.1c-0.2,0.3-0.4,0.7-0.4,1
	c-2.2,10-8.3,16.2-18.1,19C30.4,48.8,29.5,49,28.6,49.3z M3.2,25c0,12.3,10,22.4,22.3,22.4c12.4,0,22.5-10,22.5-22.4
	C48,12.6,37.9,2.6,25.4,2.6C13.3,2.6,3.2,12.7,3.2,25z"/>
<path class="st0" d="M25.4,38.5c-4-6.8-7.7-13.3-11.4-19.8c1.5-0.8,2.2-0.1,2.8,1.1c2.4,4.2,4.8,8.4,7.3,12.6
	c0.4,0.7,0.8,1.3,1.4,2.2c2.9-5,5.6-9.8,8.5-14.6c0.4-0.7,1.4-1.2,2.1-1.8c0.2,0.2,0.4,0.4,0.6,0.6C33,25.3,29.3,31.7,25.4,38.5z"/>
</svg>
